<svg width="16" height="12" viewBox="0 0 16 12" fill="none" xmlns="http://www.w3.org/2000/svg">
    <path d="M15.6199 2.10784L14.8498 1.33752C14.583 1.08429 14.2713 0.957642 13.9155 0.957642C13.5524 0.957642 13.2444 1.08429 12.9911 1.33752L8.00002 6.32874L3.00897 1.33766C2.75567 1.08443 2.44763 0.957786 2.08466 0.957786C1.7287 0.957786 1.4171 1.08443 1.1502 1.33766L0.390235 2.10799C0.13003 2.36801 0 2.67962 0 3.04252C0 3.41218 0.130174 3.72026 0.390199 3.96669L7.07567 10.6522C7.32224 10.9123 7.63018 11.0424 7.99998 11.0424C8.36284 11.0424 8.67441 10.9123 8.93437 10.6522L15.6199 3.96669C15.8732 3.71332 16 3.40527 16 3.04252C16 2.68638 15.8732 2.37496 15.6199 2.10784Z" fill="white"/>
</svg>