<?xml version="1.0" encoding="utf-8"?><svg xmlns="http://www.w3.org/2000/svg" xmlns:xlink="http://www.w3.org/1999/xlink"><symbol viewBox="0 0 32 11" id="btn-arrow-right" xmlns="http://www.w3.org/2000/svg"><path d="M.951 4.8a.7.7 0 100 1.4V4.8zm30.495 1.195a.7.7 0 000-.99L26.991.55a.7.7 0 00-.99.99l3.96 3.96-3.96 3.96a.7.7 0 00.99.99l4.455-4.455zM.951 6.2h30V4.8h-30v1.4z"/></symbol><symbol viewBox="0 0 61 59" id="cannula" xmlns="http://www.w3.org/2000/svg"><path d="M56.169 17.349c-.265 0-.52-.102-.707-.284L43.092 5.068a.948.948 0 010-1.372l3.092-3c.375-.364 1.038-.364 1.413 0l12.37 11.998a.947.947 0 010 1.37l-3.092 3a1.017 1.017 0 01-.706.285zM45.213 4.382l10.956 10.626 1.678-1.629L46.891 2.753l-1.678 1.629zM19.832 42.79a3.027 3.027 0 01-2.122-.852l-.264-.257a2.85 2.85 0 010-4.114l4.772-4.627c.188-.183.442-.284.707-.284.265 0 .52.101.707.284l3.092 3a.95.95 0 010 1.37l-4.77 4.628a3.03 3.03 0 01-2.122.852zm3.092-7.794l-4.064 3.942a.95.95 0 000 1.372l.264.257c.377.364 1.036.364 1.414 0l4.064-3.942-1.678-1.629zm14.69-3.171c-2.496 0-4.992-.92-6.892-2.764a9.263 9.263 0 010-13.368c3.8-3.686 9.983-3.686 13.784 0a9.263 9.263 0 010 13.368c-1.9 1.843-4.397 2.764-6.892 2.764zm0-16.957c-1.984 0-3.968.732-5.479 2.197a7.364 7.364 0 000 10.626c3.022 2.93 7.936 2.93 10.956 0a7.363 7.363 0 000-10.626c-1.509-1.465-3.494-2.198-5.477-2.198zm6.184 13.508h.01-.01z"/><path d="M46.303 22.417c-.111 0-.223-.018-.331-.055a.977.977 0 01-.663-.809 7.34 7.34 0 00-2.217-4.49 7.763 7.763 0 00-4.63-2.15.995.995 0 01-.834-.643.947.947 0 01.236-1.007l7.546-7.319a1.02 1.02 0 011.414 0l7.73 7.498a.952.952 0 010 1.371l-7.545 7.32a1.005 1.005 0 01-.706.284zm-5.722-9.045a9.676 9.676 0 013.925 2.322 9.416 9.416 0 012.389 3.81l5.541-5.375-6.317-6.127-5.538 5.37zM27.564 37.776a4.315 4.315 0 01-3.025-1.216l-1.549-1.502a4.06 4.06 0 01.001-5.867l5.412-5.249a1.02 1.02 0 011.413 0l.101.098a.96.96 0 01.254.42 7.472 7.472 0 001.965 3.232 7.81 7.81 0 003.334 1.906c.163.046.312.13.43.247l.102.097a.952.952 0 010 1.372l-5.412 5.248a4.326 4.326 0 01-3.026 1.214zm1.2-11.442l-4.36 4.227a2.167 2.167 0 000 3.125l1.548 1.502c.861.836 2.363.836 3.222 0l4.36-4.226a9.768 9.768 0 01-2.813-1.9 9.476 9.476 0 01-1.957-2.728z"/><path d="M46.118 47.832a5.441 5.441 0 01-3.8-1.523L30.723 35.06a.952.952 0 010-1.37l3.502-3.397a.95.95 0 01.109-.258c.23-.38.7-.562 1.136-.439 2.713.753 5.634.024 7.623-1.906.375-.363 1.04-.363 1.414 0l11.596 11.25a.952.952 0 010 1.371l-6.185 6a5.446 5.446 0 01-3.8 1.522zM32.842 34.375l10.89 10.563c1.316 1.274 3.456 1.274 4.77 0l5.479-5.313-10.218-9.912c-2.259 1.781-5.234 2.486-8.098 1.925l-2.823 2.737zm-7.599-5.029c-.256 0-.512-.095-.707-.284L12.94 17.813a5.107 5.107 0 010-7.369l6.186-6c.188-.182.442-.284.707-.284.265 0 .52.102.707.284l11.597 11.249c.39.379.39.992 0 1.37-1.99 1.931-2.744 4.764-1.965 7.394a.956.956 0 01-.454 1.103.96.96 0 01-.265.104l-3.502 3.397a1.01 1.01 0 01-.707.285zM19.832 6.502l-5.479 5.313a3.206 3.206 0 000 4.626l10.891 10.563 2.823-2.737a9.258 9.258 0 011.985-7.854l-10.22-9.911zm17.782 21.084a5.44 5.44 0 01-3.8-1.523 5.109 5.109 0 010-7.371c2.096-2.032 5.505-2.032 7.6 0a5.109 5.109 0 010 7.371 5.445 5.445 0 01-3.8 1.523zm0-8.479c-.864 0-1.728.318-2.386.956a3.208 3.208 0 000 4.628c1.315 1.274 3.455 1.276 4.771 0a3.206 3.206 0 000-4.628 3.42 3.42 0 00-2.385-.956zm3.092 6.27h.01-.01zM1.277 58.59c-.256 0-.512-.095-.707-.284a.948.948 0 010-1.37l17.008-16.498a1.02 1.02 0 011.414 0 .95.95 0 010 1.371L1.983 58.306c-.194.19-.45.284-.706.284zM27.27 33.38c-.256 0-.512-.095-.707-.284a.948.948 0 010-1.371l2-1.94a1.02 1.02 0 011.413 0 .948.948 0 010 1.371l-2 1.94a1.01 1.01 0 01-.706.284z"/><path d="M24.27 19.805c-.255 0-.511-.095-.706-.284l-5-4.848a.948.948 0 010-1.371 1.021 1.021 0 011.415 0l4.998 4.848a.947.947 0 010 1.37 1.014 1.014 0 01-.707.285zm21.995 21.332c-.256 0-.512-.095-.707-.284l-4.999-4.849a.948.948 0 010-1.37 1.02 1.02 0 011.414 0l4.998 4.848a.947.947 0 010 1.37 1.014 1.014 0 01-.706.285z"/></symbol><symbol viewBox="0 0 45 59" id="dentist-tools" xmlns="http://www.w3.org/2000/svg"><path d="M43.17 58.6h-8c-.552 0-1-.434-1-.97V26.602c0-.536.449-.97 1-.97h7.998c.552 0 1 .434 1 .97V57.63c0 .536-.448.97-1 .97zm-6.999-1.94h5.999V27.573h-6v29.089z"/><path d="M41.17 27.572h-4c-.551 0-.999-.433-.999-.97v-5.817c0-.536.448-.97 1-.97h3.999c.552 0 1 .434 1 .97v5.818c0 .536-.448.97-1 .97zm-3-1.939h2v-3.878h-2v3.878zM26.174 58.6h-7.998c-.552 0-1-.434-1-.97V26.602c0-.536.448-.97 1-.97h7.998c.552 0 1 .434 1 .97V57.63c0 .536-.448.97-1 .97zm-6.998-1.94h5.998V27.573h-5.998v29.089z"/><path d="M24.174 27.572h-3.998c-.552 0-1-.433-1-.97v-5.817c0-.536.448-.97 1-.97h3.998c.552 0 1 .434 1 .97v5.818c0 .536-.448.97-1 .97zm-2.999-1.939h2v-3.878h-2v3.878zM9.178 58.6H1.181c-.552 0-1-.434-1-.97V24.663c0-.536.448-.97 1-.97h7.997c.552 0 1 .434 1 .97V57.63c0 .536-.448.97-1 .97zM2.18 56.66h6V25.634h-6v31.028z"/><path d="M7.178 25.633H3.18c-.552 0-1-.433-1-.97v-5.817c0-.15.037-.3.106-.434l2-3.878c.338-.658 1.449-.658 1.788 0l2 3.878c.07.134.105.283.105.434v5.817c0 .537-.448.97-1 .97zm-2.999-1.94h2v-4.619l-1-1.939-1 1.94v4.619zM5.18 32.42c-.552 0-1-.433-1-.97v-.969c0-.536.448-.97 1-.97.55 0 .999.434.999.97v.97c0 .536-.448.97-1 .97zm0 5.818c-.552 0-1-.434-1-.97V36.3c0-.536.448-.97 1-.97.55 0 .999.434.999.97v.97c0 .535-.448.969-1 .969zm0 10.666c-.552 0-1-.433-1-.97v-5.817c0-.536.448-.97 1-.97.55 0 .999.434.999.97v5.818c0 .536-.448.97-1 .97zm33.99-27.149c-.552 0-1-.434-1-.97v-7.71c-.035-.607.48-.884.654-.977 2.032-1.093 2.343-1.983 2.347-2.416.008-.767-.881-1.691-2.502-2.603a.953.953 0 01-.363-1.324c.277-.464.89-.623 1.366-.353 2.337 1.313 3.514 2.76 3.5 4.3-.014 1.431-1.023 2.736-3 3.883v7.2c-.002.536-.45.97-1.002.97zm-16.995-5.818c-4.41 0-7.998-3.48-7.998-7.757 0-4.277 3.588-7.757 7.998-7.757s7.998 3.48 7.998 7.757c0 4.277-3.588 7.757-7.998 7.757zm0-13.575c-3.308 0-5.998 2.61-5.998 5.818 0 3.208 2.69 5.818 5.998 5.818 3.308 0 5.998-2.61 5.998-5.818 0-3.208-2.69-5.818-5.998-5.818z"/><path d="M22.174 21.755c-.551 0-.999-.434-.999-.97v-5.818c0-.536.448-.97 1-.97.551 0 .999.434.999.97v5.818c0 .536-.448.97-1 .97zM5.18 15.937c-.551 0-.999-.434-.999-.97V9.15c0-.536.448-.97 1-.97.551 0 .999.434.999.97v5.817c0 .536-.448.97-1 .97z"/><path d="M5.18 10.12c-.552 0-1-.434-1-.97 0-.537.448-.97 1-.97 1.653 0 2.999-1.305 2.999-2.909 0-1.604-1.346-2.909-3-2.909-1.653 0-2.999 1.305-2.999 2.91 0 .535-.448.969-1 .969-.551 0-.999-.434-.999-.97C.181 2.598 2.424.423 5.18.423s4.998 2.175 4.998 4.848S7.936 10.12 5.18 10.12zm21.994 36.845h-9.998v-9.696h9.998v9.696zm-7.998-1.94h5.998v-5.817h-5.998v5.817zm24.993 2.909h-9.997V36.3h9.997v11.635zm-7.998-1.939h5.999v-7.757h-6v7.757zM19.176 9.15c-.552 0-1-.434-1-.97 0-2.14 1.794-3.878 3.999-3.878.552 0 1 .433 1 .97 0 .535-.448.969-1 .969-1.103 0-2 .87-2 1.939 0 .536-.447.97-1 .97z"/></symbol><symbol viewBox="0 0 31 30" id="play-rounded" xmlns="http://www.w3.org/2000/svg"><path fill-rule="evenodd" clip-rule="evenodd" d="M28.11 15c0 7.18-5.82 13-13 13s-13-5.82-13-13 5.82-13 13-13 13 5.82 13 13zm2 0c0 8.284-6.716 15-15 15-8.285 0-15-6.716-15-15 0-8.284 6.715-15 15-15 8.284 0 15 6.716 15 15zm-10 0l-7.5 4.33v-8.66l7.5 4.33zm1-1.732c1.333.77 1.333 2.694 0 3.464l-7.5 4.33c-1.334.77-3-.192-3-1.732v-8.66c0-1.54 1.666-2.502 3-1.732l7.5 4.33z"/></symbol><symbol viewBox="0 0 24 24" id="question" xmlns="http://www.w3.org/2000/svg"><path d="M13 11H7a1 1 0 000 2h6a1 1 0 000-2zm4-4H7a1 1 0 000 2h10a1 1 0 100-2zm2-5H5a3 3 0 00-3 3v10a3 3 0 003 3h11.59l3.7 3.71A1 1 0 0021 22a.84.84 0 00.38-.08A1 1 0 0022 21V5a3 3 0 00-3-3zm1 16.59l-2.29-2.3A1 1 0 0017 16H5a1 1 0 01-1-1V5a1 1 0 011-1h14a1 1 0 011 1v13.59z"/></symbol><symbol viewBox="0 0 45 59" id="shield" xmlns="http://www.w3.org/2000/svg"><path d="M22.366 58.6a1.03 1.03 0 01-.59-.184l-7.6-5.265C5.711 47.288.42 37.821.02 27.83 0 27.327 0 27.047 0 27.047V9.298c0-.409.26-.776.655-.922L22.005.488a1.04 1.04 0 01.724 0l21.35 7.888a.988.988 0 01.654.922v17.749s0 .279-.02.782c-.4 9.993-5.691 19.459-14.156 25.323l-7.599 5.265a1.046 1.046 0 01-.592.183zM2.033 9.979v17.068c0 .01 0 .262.018.705.376 9.388 5.35 18.283 13.307 23.796l7.008 4.855 7.01-4.855c7.955-5.513 12.93-14.408 13.305-23.796.018-.444.018-.694.018-.705V9.979L22.366 2.466 2.033 9.979z"/><path d="M22.366 51.698c-.211 0-.424-.064-.596-.184l-4.054-2.809c-7.29-5.05-11.31-11.843-11.621-19.646a.966.966 0 01.004-.132c-.01-1.411-.001-13.223 0-15.684a.99.99 0 01.64-.915l15.245-5.914c.242-.094.518-.097.76-.002l15.245 5.916c.386.15.639.513.639.915.002 2.462.01 14.277 0 15.684a.953.953 0 01.004.132c-.312 7.803-4.33 14.598-11.621 19.649l-4.054 2.808c-.172.118-.38.182-.59.182zM8.131 29.074c.315 7.132 4.036 13.365 10.768 18.028l3.464 2.401 3.465-2.401c6.73-4.663 10.45-10.892 10.768-18.022a5935.953 5935.953 0 00-.001-15.17L22.36 8.388 8.133 13.91c-.004 4.636-.01 14.705 0 15.078 0 .03 0 .059-.002.086z"/><path d="M27.361 38.88a1.5 1.5 0 01-.349-.042 1.432 1.432 0 01-1.046-.98c-1.001-3.43-2.583-6.119-3.6-6.119s-2.598 2.689-3.6 6.119c-.14.482-.542.858-1.046.98a1.475 1.475 0 01-1.393-.39c-1.816-1.843-1.713-5.31-1.695-5.698 0-.95.213-2.175.636-3.6a1.8 1.8 0 00-.292-1.583c-.073-.1-.144-.203-.214-.304-1.011-1.499-1.545-3.284-1.545-5.165v-.864c0-3.201 3.44-4.048 5.26-4.048 1.785 0 3.104.83 3.89 1.512.784-.682 2.104-1.512 3.889-1.512 1.82 0 5.26.847 5.26 4.047v.864c0 1.881-.534 3.666-1.543 5.162-.07.102-.143.206-.219.308a1.803 1.803 0 00-.29 1.58c.423 1.428.637 2.654.637 3.645.017.347.12 3.813-1.697 5.655-.273.28-.652.432-1.043.432zm-8.884-19.722c-.13.002-3.227.042-3.227 2.075v.864c0 1.497.419 2.908 1.21 4.082.054.079.111.16.171.243.706.964.92 2.156.59 3.27-.364 1.23-.557 2.304-.557 3.102-.027.656.043 2.173.526 3.328.87-2.54 2.605-6.354 5.177-6.354 2.568 0 4.303 3.811 5.174 6.35.485-1.167.554-2.7.529-3.281-.001-.84-.193-1.911-.558-3.145-.33-1.114-.116-2.305.588-3.266.061-.084.118-.165.172-.245.792-1.176 1.21-2.587 1.21-4.084v-.864c0-2.024-3.072-2.073-3.227-2.075-1.891.002-3.043 1.535-3.054 1.55-.38.53-1.29.53-1.67 0-.042-.059-1.162-1.55-3.054-1.55z"/><path d="M19.317 23.103c-.562 0-1.017-.441-1.017-.986 0-.545.456-.986 1.017-.986.605 0 1.7-.931 2.257-1.604a1.037 1.037 0 011.43-.15.965.965 0 01.155 1.385c-.324.391-2.03 2.34-3.842 2.34z"/></symbol><symbol viewBox="0 0 59 59" id="tooth-guarantie" xmlns="http://www.w3.org/2000/svg"><path d="M15.08 12.058c-.551 0-.999-.434-.999-.97s.448-.97 1-.97c2.89 0 6.92-3.946 8.23-5.469a1.02 1.02 0 011.407-.123.95.95 0 01.128 1.365c-.542.631-5.424 6.167-9.765 6.167zm27.992 32.966c-.184 0-.368-.05-.53-.148l-5.102-3.092c-3.041-1.843-5.508-4.155-7.333-6.872-1.728-2.573-1.996-4.126-2.021-4.295a1.08 1.08 0 01-.01-.137V13.997c0-.458.33-.852.791-.948l13.996-2.91c.138-.027.281-.027.419 0l13.996 2.91c.46.096.79.49.79.948V30.48a.907.907 0 01-.01.137c-.026.17-.293 1.72-2.022 4.295-1.825 2.717-4.292 5.029-7.333 6.872l-5.102 3.092a1.019 1.019 0 01-.529.148zM30.076 30.39c.057.252.387 1.496 1.708 3.461 1.664 2.48 3.924 4.594 6.717 6.287l4.571 2.771 4.572-2.77c2.792-1.693 5.053-3.809 6.717-6.287 1.312-1.954 1.646-3.195 1.708-3.464V14.782L43.072 12.08l-12.996 2.701v15.61z"/><path d="M43.072 40.176c-.161 0-.322-.038-.468-.113l-2.983-1.532-.062-.035c-2.544-1.544-4.597-3.46-6.101-5.7-.818-1.22-1.184-2.085-1.329-2.492a.98.98 0 01-.054-.318v-13.08c0-.463.336-.86.804-.95l9.997-1.94c.129-.024.263-.024.392 0l9.997 1.94c.468.09.803.487.803.95v13.08a.949.949 0 01-.054.317c-.146.408-.51 1.273-1.33 2.49-1.503 2.24-3.555 4.158-6.1 5.702l-3.044 1.567a1.018 1.018 0 01-.468.114zm-2.483-3.342l2.483 1.275 2.514-1.293c2.234-1.357 4.08-3.08 5.424-5.08.62-.924.925-1.585 1.059-1.92V17.7l-8.998-1.745-8.997 1.745v12.115c.134.336.44.996 1.059 1.92 1.339 1.994 3.174 3.708 5.456 5.099z"/><path d="M42.072 30.48c-.265 0-.519-.102-.707-.284l-2.999-2.909a.948.948 0 010-1.37 1.02 1.02 0 011.414 0l2.236 2.167 5.296-5.991c.359-.409.99-.455 1.41-.105.418.348.467.96.107 1.366l-5.998 6.787a1.01 1.01 0 01-.72.338l-.039.001z"/><path d="M38.214 58.599c-.18 0-.362-.02-.544-.064a2.198 2.198 0 01-1.61-1.51c-2.02-6.979-6.816-18.788-11.982-18.788-5.167 0-9.962 11.81-11.98 18.787a2.201 2.201 0 01-1.611 1.511 2.222 2.222 0 01-2.13-.602c-4.672-4.781-4.291-14.48-4.272-14.89-.001-3.27.937-7.162 1.723-9.842.608-2.073.208-4.293-1.1-6.093a27.093 27.093 0 01-.57-.817C1.488 22.328.086 17.588.086 12.582V10.12C.086 2.45 8.588.424 13.082.424c5.695 0 9.501 2.411 10.997 3.566 1.494-1.156 5.3-3.567 10.995-3.567 4.495 0 12.996 2.026 12.996 9.696v1.8c0 .293-.136.57-.37.753a1.017 1.017 0 01-.838.194l-3.79-.787-12.996 2.701v15.61c.057.253.387 1.497 1.708 3.462 1.664 2.48 3.924 4.594 6.717 6.287l4.978 3.017a.967.967 0 01.604.899c-.026 2.88-.495 9.999-4.284 13.876a2.2 2.2 0 01-1.585.668zM24.078 36.298c7.479 0 12.534 15.462 13.906 20.202.03.105.116.14.165.152.078.02.145.001.197-.053 3.136-3.21 3.65-9.447 3.725-12.009l-4.631-2.808c-3.041-1.843-5.508-4.155-7.333-6.872-1.728-2.573-1.996-4.126-2.021-4.294a1.027 1.027 0 01-.01-.136V13.997c0-.458.33-.852.791-.948l13.996-2.91c.138-.027.281-.027.419 0l2.789.58v-.6c0-7.648-10.549-7.756-10.998-7.757-6.465 0-10.252 3.56-10.29 3.596a1.024 1.024 0 01-1.412-.002c-.036-.034-3.824-3.594-10.29-3.594-.448 0-10.996.108-10.996 7.757v2.463c0 4.63 1.29 9.005 3.73 12.651.17.254.344.506.528.758C8 28.27 8.506 31.093 7.732 33.73c-.752 2.563-1.649 6.266-1.649 9.355-.005.134-.362 9.332 3.725 13.514.053.054.12.071.2.053a.219.219 0 00.164-.152c1.372-4.74 6.427-20.202 13.906-20.202z"/></symbol><symbol viewBox="0 0 16 12" id="up-arrow" xmlns="http://www.w3.org/2000/svg"><path d="M15.62 9.892l-.77.77c-.267.254-.579.38-.934.38-.364 0-.672-.126-.925-.38L8 5.672l-4.991 4.99c-.253.254-.561.38-.924.38-.356 0-.668-.126-.935-.38l-.76-.77C.13 9.632 0 9.32 0 8.957c0-.37.13-.677.39-.924l6.686-6.685c.246-.26.554-.39.924-.39.363 0 .674.13.934.39l6.686 6.685c.253.254.38.562.38.924 0 .357-.127.668-.38.935z"/></symbol></svg>